<?xml version="1.0" standalone="no"?>
<!DOCTYPE svg PUBLIC "-//W3C//DTD SVG 20010904//EN"
 "http://www.w3.org/TR/2001/REC-SVG-20010904/DTD/svg10.dtd">
<svg version="1.0" xmlns="http://www.w3.org/2000/svg"
 width="300.000000pt" height="300.000000pt" viewBox="0 0 300.000000 300.000000"
 preserveAspectRatio="xMidYMid meet">
<metadata>
Created by potrace 1.11, written by Peter Selinger 2001-2013
</metadata>
<g transform="translate(0.000000,300.000000) scale(0.100000,-0.100000)"
fill="#000000" stroke="none">
<path d="M2520 2985 c0 -8 -7 -15 -15 -15 -8 0 -51 -36 -94 -79 -55 -56 -97
-88 -138 -106 -32 -14 -66 -30 -75 -36 -10 -5 -30 -9 -45 -9 -16 0 -41 -8 -58
-17 -24 -13 -74 -18 -235 -24 -197 -8 -300 -23 -307 -45 -5 -15 90 -64 125
-64 16 0 52 -6 78 -14 27 -8 81 -24 119 -35 39 -12 78 -21 87 -21 49 0 44 -60
-8 -110 -31 -29 -38 -31 -60 -21 -14 6 -44 11 -67 11 -23 0 -59 9 -80 20 -39
21 -115 29 -173 18 -55 -11 -135 -50 -130 -64 3 -7 -8 -17 -26 -23 -39 -14
-81 -14 -73 -1 3 6 17 10 30 10 49 0 33 19 -21 26 -65 8 -132 -8 -141 -34 -4
-9 -9 -19 -12 -22 -3 -3 -10 -13 -16 -23 -5 -10 -14 -18 -18 -17 -4 0 -15 -6
-23 -15 -9 -8 -27 -15 -40 -15 -16 0 -39 -15 -64 -40 -31 -31 -47 -40 -74 -40
-37 0 -56 14 -31 24 8 3 15 10 15 17 0 6 -15 2 -34 -10 -48 -30 -56 -25 -16
11 l35 30 -65 -35 c-36 -19 -90 -45 -120 -57 -30 -12 -71 -30 -90 -40 -46 -23
-126 -40 -203 -41 -34 -1 -75 -5 -92 -9 -24 -6 -19 -8 29 -9 60 -1 68 -14 16
-25 -14 -2 -5 -3 20 -1 25 2 77 10 115 18 93 20 187 28 180 16 -4 -5 -17 -9
-30 -9 -14 0 -73 -14 -132 -30 -112 -31 -267 -52 -293 -40 -8 4 -49 10 -90 13
-73 6 -74 6 -47 -11 15 -9 27 -20 27 -24 0 -5 19 -8 43 -9 40 -1 41 -1 12 -9
-16 -5 -55 -13 -85 -19 -46 -8 -37 -9 57 -5 131 6 175 0 171 -24 -4 -21 -29
-30 -93 -31 -41 -1 -47 -4 -31 -12 15 -9 16 -13 5 -20 -8 -5 -26 -9 -41 -9
-15 0 -30 -5 -33 -10 -4 -6 -15 -10 -24 -8 -10 2 -24 -2 -32 -8 -8 -6 -35 -19
-61 -29 -32 -12 -48 -24 -48 -35 0 -20 43 -30 136 -30 33 0 64 -3 68 -7 12
-12 -116 -43 -154 -37 -24 4 -31 2 -21 -4 11 -8 9 -11 -8 -17 -27 -8 -27 -31
-1 -38 22 -6 27 -36 8 -55 -10 -10 -10 -15 2 -22 17 -10 30 -4 30 14 0 15 40
23 78 18 l23 -3 -23 -18 c-27 -20 -112 -46 -126 -37 -5 3 -10 -24 -11 -63 -2
-55 1 -68 14 -68 8 0 15 6 15 14 0 10 23 13 100 13 90 0 102 2 122 23 13 12
33 28 47 35 28 15 138 16 143 1 2 -5 11 -11 21 -13 10 -1 27 -10 37 -19 11 -9
20 -13 20 -9 0 4 5 0 10 -9 5 -9 34 -35 63 -58 53 -41 95 -53 101 -28 17 64
42 135 53 148 7 8 13 21 13 27 0 6 9 17 20 25 11 7 30 38 44 68 13 30 33 62
45 73 11 10 18 23 14 29 -3 5 -1 7 5 3 6 -3 17 1 26 9 11 11 30 15 63 13 l48
-3 -2 -60 c-1 -33 -9 -85 -18 -115 -31 -108 -47 -311 -40 -524 4 -137 10 -207
19 -224 12 -23 12 -28 -2 -38 -15 -11 -15 -14 1 -31 9 -11 17 -24 17 -29 0
-15 153 -174 168 -174 6 0 12 -4 12 -10 0 -5 6 -10 14 -10 8 0 23 -11 34 -24
12 -16 23 -21 31 -16 9 5 10 10 2 14 -6 4 -11 5 -11 3 0 -3 -17 11 -37 30 -21
19 -53 41 -71 50 -24 12 -32 21 -29 34 4 13 -4 24 -24 36 -31 18 -46 43 -26
43 19 0 85 -48 97 -71 6 -11 30 -28 53 -38 23 -10 55 -30 71 -44 16 -14 41
-29 55 -32 38 -10 51 -24 51 -56 0 -29 -13 -38 -25 -19 -3 6 -16 10 -27 10
-12 0 -30 7 -40 17 -26 23 -22 11 7 -23 14 -16 25 -23 25 -16 0 6 4 12 9 12 5
0 7 -9 4 -20 -4 -14 0 -20 12 -20 12 0 15 -5 10 -19 -4 -13 1 -24 17 -35 18
-13 19 -16 5 -16 -9 0 -17 -4 -17 -9 0 -15 -43 -18 -70 -5 -14 7 -52 19 -84
28 -33 8 -62 19 -65 23 -3 4 -17 17 -30 28 -23 20 -23 20 -20 0 3 -16 -1 -19
-21 -17 l-25 3 23 -20 c12 -10 22 -28 22 -39 0 -13 11 -22 38 -30 22 -7 51
-23 65 -36 15 -13 34 -26 44 -28 14 -3 17 -11 15 -35 -4 -36 5 -41 87 -42 72
-2 95 -15 87 -51 -3 -18 0 -33 9 -40 8 -7 12 -16 9 -21 -3 -5 322 -9 770 -9
l776 0 0 1500 0 1500 -240 0 c-207 0 -240 -2 -240 -15z m-402 -451 c25 -17 28
-30 9 -48 -26 -27 -77 13 -63 49 7 19 26 19 54 -1z m-561 -200 c-3 -3 -12 -4
-19 -1 -8 3 -5 6 6 6 11 1 17 -2 13 -5z m-762 -209 c-51 -23 -115 -42 -103
-30 11 11 122 55 138 54 8 0 -7 -11 -35 -24z m155 -45 c-14 -11 -32 -20 -40
-20 -8 0 -1 9 15 20 39 26 58 26 25 0z m-265 -110 c-3 -5 -12 -10 -18 -10 -7
0 -6 4 3 10 19 12 23 12 15 0z m825 -9 c-8 -5 -28 -11 -45 -15 l-30 -6 25 15
c14 8 34 14 45 14 16 0 17 -1 5 -8z m-1030 -20 c-17 -10 -51 -14 -95 -11 -30
2 -30 2 -5 10 35 11 119 12 100 1z m327 -37 c-3 -3 -12 -4 -19 -1 -8 3 -5 6 6
6 11 1 17 -2 13 -5z m113 -24 c-25 -22 -45 -26 -55 -10 -3 5 0 7 9 4 8 -3 25
4 37 15 13 11 25 19 27 16 3 -3 -5 -14 -18 -25z m-181 17 c-2 -2 -20 -11 -39
-20 l-35 -17 24 20 c13 11 30 20 39 20 8 0 13 -2 11 -3z m-159 -47 c-8 -5 -22
-10 -30 -10 -13 0 -13 1 0 10 8 5 22 10 30 10 13 0 13 -1 0 -10z m363 0 c7 0
7 -4 -2 -9 -8 -5 -20 -7 -28 -4 -9 4 -16 -3 -20 -16 -7 -28 -17 -27 -31 3 -10
23 -9 25 16 29 15 2 33 2 40 0 8 -1 19 -3 25 -3z m-433 -16 c0 -38 -242 -107
-364 -103 -26 1 -32 3 -16 6 66 12 193 46 265 73 78 28 115 36 115 24z m1360
-24 c0 -5 -4 -19 -10 -32 -5 -13 -14 -42 -20 -65 -6 -24 -15 -43 -21 -43 -6 0
-8 8 -6 18 22 80 41 132 48 132 5 0 9 -4 9 -10z m60 -9 c0 -10 -7 -24 -15 -31
-12 -10 -15 -10 -15 3 0 23 11 47 21 47 5 0 9 -8 9 -19z m-1305 -1 c-3 -5 -13
-10 -21 -10 -8 0 -14 -4 -14 -8 0 -5 -16 -16 -35 -25 -49 -23 -47 2 3 31 38
22 78 29 67 12z m235 4 c0 -3 -4 -13 -9 -22 -12 -23 -101 -86 -101 -72 0 6 -4
9 -9 5 -13 -8 -26 15 -26 48 0 26 2 27 50 27 28 0 57 5 65 10 17 11 30 13 30
4z m879 -40 c-18 -22 -22 -11 -7 22 10 21 14 24 16 10 2 -9 -2 -24 -9 -32z
m82 -5 c-9 -23 -10 -23 -10 -2 -1 12 2 30 6 40 6 15 8 15 11 2 1 -8 -2 -26 -7
-40z m-285 -46 l-15 -28 -1 28 c0 16 6 38 12 50 l13 22 3 -22 c2 -12 -4 -34
-12 -50z m137 -10 c-7 -57 -17 -82 -25 -62 -5 14 19 109 27 109 3 0 2 -21 -2
-47z m-176 -15 c-2 -13 -4 -5 -4 17 -1 22 1 32 4 23 2 -10 2 -28 0 -40z m80
15 c-3 -10 -5 -4 -5 12 0 17 2 24 5 18 2 -7 2 -21 0 -30z m120 -5 c-3 -8 -6
-5 -6 6 -1 11 2 17 5 13 3 -3 4 -12 1 -19z m37 -70 c-4 -59 -12 -92 -25 -109
-16 -20 -20 -22 -29 -9 -13 20 -13 80 1 119 11 32 33 41 43 19 3 -7 5 1 5 17
-2 45 0 59 7 53 3 -3 2 -44 -2 -90z m47 -1 c-19 -19 -22 -1 -9 49 l13 49 3
-44 c2 -24 -1 -48 -7 -54z m-311 -9 c0 -45 -3 -59 -10 -48 -17 26 -12 110 7
110 2 0 3 -28 3 -62z m145 22 c-4 -17 -9 -29 -12 -26 -3 2 -2 19 2 36 4 17 9
29 12 26 3 -2 2 -19 -2 -36z m-75 -108 c-4 -1 -5 -14 -2 -27 2 -15 0 -25 -7
-25 -6 0 -11 -10 -11 -22 1 -26 -15 -114 -29 -173 -6 -22 -11 -128 -11 -235 0
-139 -4 -190 -11 -177 -6 9 -15 14 -21 11 -7 -4 -8 -2 -4 5 4 6 0 42 -10 79
-14 55 -16 96 -11 232 4 129 3 161 -6 145 -13 -22 -17 -356 -5 -435 l6 -45
-14 40 -14 40 4 -35 c3 -19 7 -48 9 -65 2 -16 2 -23 0 -15 -3 8 -11 22 -18 30
-54 65 -85 318 -51 422 8 24 16 70 19 102 2 33 9 62 15 64 7 2 12 14 12 27 0
28 20 75 32 75 4 0 8 12 8 26 0 48 18 14 25 -48 7 -60 8 -61 21 -35 8 15 20
24 28 21 18 -7 36 17 34 47 -1 13 0 38 2 54 2 22 5 15 10 -25 3 -30 3 -56 0
-58z m91 47 l-10 -24 0 26 c-1 14 2 29 6 33 12 12 14 -9 4 -35z m-44 -16 c-3
-10 -5 -2 -5 17 0 19 2 27 5 18 2 -10 2 -26 0 -35z m-80 -5 c-3 -8 -6 -5 -6 6
-1 11 2 17 5 13 3 -3 4 -12 1 -19z m156 -25 c3 -16 3 -30 1 -32 -8 -8 -32 33
-27 46 8 21 20 15 26 -14z m-73 -62 c1 -10 7 -4 17 14 15 26 18 27 21 10 1
-11 8 -30 15 -43 9 -18 8 -25 -2 -32 -8 -4 -10 -13 -6 -19 3 -7 -1 -35 -10
-64 -15 -50 -19 -53 -51 -55 -32 -2 -34 -1 -34 28 0 21 -4 29 -11 24 -8 -5
-10 5 -6 32 14 88 20 114 28 120 5 3 9 17 9 32 l0 27 15 -29 c8 -15 15 -36 15
-45z m-343 -213 c-3 -7 -5 -2 -5 12 0 14 2 19 5 13 2 -7 2 -19 0 -25z m348
-46 c-3 -9 -9 -69 -11 -132 -5 -91 -2 -135 14 -210 11 -52 17 -98 13 -101 -3
-4 -16 -10 -27 -13 -18 -5 -23 -1 -28 20 -4 16 -12 24 -20 21 -23 -9 -39 125
-34 270 3 70 8 135 12 143 4 10 21 16 47 17 35 2 40 -1 34 -15z m-168 -374
c-3 -8 -6 -5 -6 6 -1 11 2 17 5 13 3 -3 4 -12 1 -19z m-7 -398 c0 -5 -4 -10
-10 -10 -5 0 -10 5 -10 10 0 6 5 10 10 10 6 0 10 -4 10 -10z"/>
<path d="M1602 1430 c0 -14 2 -19 5 -12 2 6 2 18 0 25 -3 6 -5 1 -5 -13z"/>
<path d="M1551 1393 c-1 -6 -4 -20 -7 -30 -5 -17 -5 -17 6 0 6 10 9 23 6 30
-3 9 -5 9 -5 0z"/>
<path d="M6 2121 c9 -9 105 -32 127 -30 15 1 -103 39 -122 39 -9 0 -11 -3 -5
-9z"/>
<path d="M98 2123 c7 -3 16 -2 19 1 4 3 -2 6 -13 5 -11 0 -14 -3 -6 -6z"/>
<path d="M0 1911 c0 -4 11 -6 25 -3 32 6 32 12 0 12 -14 0 -25 -4 -25 -9z"/>
<path d="M97 1343 c-3 -5 3 -18 13 -31 15 -18 28 -22 80 -22 76 0 78 19 4 36
-27 6 -59 14 -71 18 -12 4 -24 3 -26 -1z"/>
<path d="M471 656 c3 -3 27 -7 54 -10 35 -4 44 -3 30 3 -20 10 -92 15 -84 7z"/>
<path d="M418 643 c7 -3 16 -2 19 1 4 3 -2 6 -13 5 -11 0 -14 -3 -6 -6z"/>
<path d="M525 615 c22 -8 45 -23 52 -32 7 -8 29 -17 50 -19 37 -3 37 -2 -22
26 -33 16 -73 31 -90 35 -23 4 -21 2 10 -10z"/>
<path d="M690 549 c14 -7 42 -20 63 -31 39 -19 63 -24 37 -8 -8 5 -12 12 -8
15 3 3 44 -14 92 -38 95 -50 108 -47 18 3 -31 18 -60 37 -64 43 -3 6 -24 11
-45 12 -21 1 -56 5 -78 9 -36 6 -37 5 -15 -5z"/>
<path d="M847 454 c5 -13 1 -15 -18 -9 -23 7 -23 7 -4 -8 11 -8 22 -12 25 -8
3 5 11 10 18 12 8 3 6 8 -8 16 -16 11 -18 10 -13 -3z"/>
</g>
</svg>
